M48
; DRILL file {KiCad 7.0.9} date Mon Oct 14 12:04:14 2024
; FORMAT={-:-/ absolute / metric / decimal}
; #@! TF.CreationDate,2024-10-14T12:04:14+09:00
; #@! TF.GenerationSoftware,Kicad,Pcbnew,7.0.9
; #@! TF.FileFunction,MixedPlating,1,2
FMAT,2
METRIC
; #@! TA.AperFunction,Plated,PTH,ViaDrill
T1C0.300
; #@! TA.AperFunction,Plated,PTH,ComponentDrill
T2C0.300
; #@! TA.AperFunction,Plated,PTH,ViaDrill
T3C0.400
; #@! TA.AperFunction,Plated,PTH,ViaDrill
T4C0.500
; #@! TA.AperFunction,Plated,PTH,ComponentDrill
T5C0.500
; #@! TA.AperFunction,Plated,PTH,ComponentDrill
T6C0.650
; #@! TA.AperFunction,Plated,PTH,ComponentDrill
T7C0.800
; #@! TA.AperFunction,Plated,PTH,ComponentDrill
T8C0.950
; #@! TA.AperFunction,Plated,PTH,ComponentDrill
T9C1.000
; #@! TA.AperFunction,Plated,PTH,ComponentDrill
T10C1.100
; #@! TA.AperFunction,Plated,PTH,ComponentDrill
T11C3.200
; #@! TA.AperFunction,Plated,PTH,ComponentDrill
T12C4.500
%
G90
G05
T1
X2.35Y34.65
X2.35Y33.6
X2.516Y29.958
X2.516Y27.858
X2.541Y38.258
X2.616Y25.558
X2.824Y42.174
X3.166Y36.888
X3.216Y31.258
X3.416Y43.638
X3.79Y41.208
X3.866Y38.258
X4.666Y32.688
X6.015Y20.675
X6.09Y60.4
X6.116Y30.208
X6.366Y44.164
X6.5Y33.85
X6.566Y27.758
X6.96Y34.52
X7.29Y28.6
X7.515Y61.825
X8.016Y26.808
X8.5Y22.099
X9.366Y24.808
X9.416Y51.058
X10.066Y47.338
X10.066Y46.089
X10.365Y30.457
X10.391Y33.434
X10.716Y51.158
X11.22Y3.312
X11.316Y24.808
X11.649Y14.775
X11.915Y41.275
X12.1Y33.2
X12.566Y25.358
X12.765Y41.275
X13.115Y16.226
X13.265Y33.225
X13.366Y83.058
X13.665Y41.225
X13.669Y50.034
X14.023Y33.478
X14.415Y26.525
X14.479Y41.216
X14.915Y33.125
X14.965Y35.125
X15.265Y26.825
X15.728Y19.366
X15.896Y27.316
X16.619Y6.904
X16.965Y65.075
X16.965Y48.0
X17.015Y27.275
X17.22Y3.25
X17.268Y17.82
X17.965Y37.358
X18.133Y27.225
X18.265Y65.025
X18.781Y22.45
X18.792Y19.25
X18.94Y42.9
X19.058Y31.182
X19.215Y34.425
X19.515Y64.975
X19.578Y85.922
X20.28Y41.88
X20.366Y50.174
X20.447Y84.953
X20.815Y64.975
X21.4Y39.825
X21.5Y46.8
X22.0Y24.3
X22.115Y50.174
X22.715Y83.975
X22.999Y34.213
X23.024Y48.324
X23.1Y17.5
X23.215Y37.025
X23.5Y31.1
X23.5Y25.8
X23.9Y44.7
X24.115Y6.904
X24.2Y34.05
X24.25Y29.5
X24.264Y32.864
X24.3Y76.0
X24.3Y17.95
X24.35Y54.7
X24.35Y13.4
X24.4Y71.4
X24.4Y59.2
X24.549Y16.449
X24.574Y50.174
X24.6Y42.232
X25.8Y7.6
X25.85Y65.6
X25.9Y23.95
X26.0Y48.8
X26.539Y12.238
X26.55Y70.1
X26.65Y53.1
X26.65Y28.15
X28.0Y75.2
X28.062Y70.5
X28.096Y48.005
X28.1Y64.1
X28.1Y58.4
X28.1Y53.4
X28.1Y33.7
X28.183Y11.831
X28.19Y28.6
X28.2Y23.0
X28.2Y17.078
X29.079Y53.155
X29.111Y70.014
X29.15Y28.214
X29.25Y12.05
X30.2Y40.2
X31.49Y42.3
X31.49Y40.2
X32.69Y40.2
X32.79Y42.3
X46.9Y24.8
X47.015Y66.55
X87.215Y29.275
X90.215Y32.275
X90.215Y29.275
X90.215Y26.3
X93.215Y71.3
X93.215Y68.3
X93.215Y65.3
X93.215Y62.3
X93.215Y44.3
X93.215Y41.3
X93.215Y38.3
X93.215Y35.3
X93.215Y32.3
X93.215Y29.3
X93.215Y26.3
X96.215Y68.3
X96.215Y65.3
X96.215Y62.3
X96.215Y44.3
X96.215Y41.3
X96.215Y38.3
X96.215Y35.3
X96.215Y32.3
X96.215Y29.3
X96.215Y26.3
X97.1Y69.87
T2
X10.166Y98.048
X10.166Y96.848
X10.166Y95.648
X10.166Y94.448
X10.166Y93.248
X11.366Y98.048
X11.366Y96.848
X11.366Y95.648
X11.366Y94.448
X11.366Y93.248
X12.566Y98.048
X12.566Y96.848
X12.566Y95.648
X12.566Y94.448
X12.566Y93.248
X13.766Y98.048
X13.766Y96.848
X13.766Y95.648
X13.766Y94.448
X13.766Y93.248
X14.966Y98.048
X14.966Y96.848
X14.966Y95.648
X14.966Y94.448
X14.966Y93.248
X56.405Y25.935
X56.405Y24.735
X56.405Y23.535
X56.41Y10.03
X56.41Y8.83
X56.41Y7.63
X56.605Y68.365
X56.605Y67.165
X56.605Y65.965
X56.605Y51.465
X56.605Y50.265
X56.605Y49.065
X57.605Y25.935
X57.605Y24.735
X57.605Y23.535
X57.61Y10.03
X57.61Y8.83
X57.61Y7.63
X57.805Y68.365
X57.805Y67.165
X57.805Y65.965
X57.805Y51.465
X57.805Y50.265
X57.805Y49.065
X58.805Y25.935
X58.805Y24.735
X58.805Y23.535
X58.81Y10.03
X58.81Y8.83
X58.81Y7.63
X59.005Y68.365
X59.005Y67.165
X59.005Y65.965
X59.005Y51.465
X59.005Y50.265
X59.005Y49.065
T3
X41.6Y73.1
X41.6Y31.3
X41.6Y8.8
X41.602Y56.087
X41.7Y66.8
X41.7Y49.9
X41.7Y25.0
X42.157Y14.729
X55.165Y21.275
X55.34Y3.125
X55.365Y63.45
X57.215Y44.5
X61.6Y45.4
X65.3Y20.2
X65.315Y4.25
X65.4Y62.3
T4
X1.05Y9.5
X1.1Y90.5
X1.1Y87.5
X1.1Y84.5
X1.1Y81.5
X1.1Y78.5
X1.1Y75.5
X1.1Y72.5
X1.1Y69.5
X1.1Y66.5
X1.1Y63.5
X1.1Y60.5
X1.1Y57.5
X1.1Y54.5
X1.1Y51.5
X1.1Y48.5
X1.1Y45.5
X1.1Y42.5
X1.1Y39.5
X1.1Y36.5
X1.1Y33.5
X1.1Y30.5
X1.1Y27.5
X1.1Y24.5
X1.1Y21.5
X1.1Y18.5
X1.1Y15.5
X1.1Y12.5
X4.1Y90.5
X4.1Y87.5
X4.1Y84.5
X4.1Y81.5
X4.1Y78.5
X4.1Y60.5
X4.1Y21.5
X4.1Y15.5
X4.1Y12.5
X4.85Y46.338
X7.05Y6.5
X7.1Y98.8
X7.1Y57.5
X7.1Y54.5
X7.1Y51.5
X7.1Y48.5
X7.1Y39.5
X7.1Y36.5
X7.1Y24.5
X7.1Y15.5
X7.2Y87.2
X7.4Y83.5
X7.4Y81.05
X7.8Y63.4
X8.15Y92.55
X8.6Y85.55
X10.05Y3.5
X10.1Y78.5
X10.1Y39.5
X10.1Y36.5
X10.8Y63.4
X10.8Y60.4
X10.85Y72.4
X10.85Y69.4
X12.15Y89.8
X12.35Y13.95
X12.4Y80.15
X12.5Y86.9
X13.05Y39.5
X13.05Y36.5
X13.05Y3.5
X13.1Y21.5
X13.2Y88.5
X13.8Y66.45
X13.8Y63.45
X13.8Y60.45
X13.8Y57.4
X13.8Y54.4
X13.8Y51.4
X13.85Y78.45
X13.85Y75.45
X13.85Y72.45
X13.85Y69.45
X15.915Y24.375
X16.05Y13.95
X16.05Y10.95
X16.05Y7.95
X16.05Y3.5
X16.95Y93.3
X17.065Y49.425
X17.9Y78.55
X17.9Y75.55
X17.9Y69.45
X17.9Y66.45
X18.265Y57.425
X19.1Y98.9
X19.797Y53.925
X20.1Y19.95
X20.1Y16.95
X20.1Y13.95
X20.1Y10.95
X20.1Y7.95
X20.165Y73.175
X20.9Y69.45
X20.9Y66.45
X21.965Y75.325
X22.1Y98.9
X22.25Y82.95
X22.25Y79.95
X22.324Y4.078
X23.1Y10.95
X23.1Y7.95
X23.3Y86.7
X23.45Y58.5
X24.015Y77.675
X25.1Y98.9
X25.15Y25.5
X25.465Y5.475
X25.9Y19.95
X25.95Y22.5
X26.1Y64.0
X26.1Y61.0
X26.4Y86.7
X26.4Y83.7
X28.05Y1.05
X28.1Y98.9
X28.15Y35.4
X28.2Y41.5
X28.25Y77.7
X29.4Y95.8
X29.4Y92.8
X29.4Y89.7
X29.4Y86.7
X29.4Y83.7
X30.85Y36.65
X31.015Y5.325
X31.05Y45.7
X31.05Y1.05
X33.715Y5.275
X33.75Y1.05
X39.7Y99.0
X39.7Y97.0
X39.7Y94.9
X39.7Y5.1
X39.7Y3.1
X39.7Y1.1
X41.7Y99.0
X41.7Y1.1
X43.125Y90.8
X43.176Y91.994
X43.176Y89.581
X43.39Y66.55
X43.4Y70.064
X43.4Y49.9
X43.4Y24.851
X43.409Y28.609
X43.415Y12.024
X43.44Y53.124
X43.7Y99.0
X43.7Y1.1
X45.7Y99.0
X45.7Y1.1
X47.0Y49.4
X47.7Y99.0
X47.7Y1.1
X49.7Y99.0
X49.7Y1.1
X51.7Y99.0
X51.7Y1.1
X53.7Y99.0
X53.7Y1.1
X55.7Y99.0
X55.7Y1.1
X57.7Y99.0
X57.7Y1.1
X57.8Y34.3
X57.8Y33.2
X57.8Y32.1
X58.8Y59.8
X58.8Y58.7
X58.8Y57.6
X58.8Y56.5
X58.8Y55.4
X58.8Y54.3
X58.8Y18.2
X58.8Y17.1
X58.8Y16.0
X58.8Y14.9
X58.8Y13.8
X58.8Y12.7
X58.9Y76.7
X58.9Y75.6
X58.9Y74.5
X58.9Y73.4
X58.9Y72.3
X58.9Y71.2
X58.9Y34.3
X58.9Y33.2
X58.9Y32.1
X58.9Y31.0
X58.9Y29.9
X58.9Y28.8
X59.7Y99.0
X59.7Y1.1
X59.9Y59.8
X59.9Y58.7
X59.9Y57.6
X59.9Y56.5
X59.9Y55.4
X59.9Y54.3
X59.9Y18.2
X59.9Y17.1
X59.9Y16.0
X59.9Y14.9
X59.9Y13.8
X59.9Y12.7
X60.0Y76.7
X60.0Y75.6
X60.0Y74.5
X60.0Y73.4
X60.0Y72.3
X60.0Y71.2
X60.0Y34.3
X60.0Y33.2
X60.0Y32.1
X60.0Y31.0
X60.0Y29.9
X60.0Y28.8
X61.0Y59.8
X61.0Y58.7
X61.0Y57.6
X61.0Y56.5
X61.0Y55.4
X61.0Y54.3
X61.0Y18.2
X61.0Y17.1
X61.0Y16.0
X61.0Y14.9
X61.0Y13.8
X61.0Y12.7
X61.1Y76.7
X61.1Y75.6
X61.1Y74.5
X61.1Y73.4
X61.1Y72.3
X61.1Y71.2
X61.1Y34.3
X61.1Y33.2
X61.1Y32.1
X61.1Y31.0
X61.1Y29.9
X61.1Y28.8
X61.7Y99.0
X61.7Y1.1
X62.1Y59.8
X62.1Y58.7
X62.1Y57.6
X62.1Y56.5
X62.1Y55.4
X62.1Y54.3
X62.1Y18.2
X62.1Y17.1
X62.1Y16.0
X62.1Y14.9
X62.1Y13.8
X62.1Y12.7
X62.2Y76.7
X62.2Y75.6
X62.2Y74.5
X62.2Y73.4
X62.2Y72.3
X62.2Y71.2
X62.2Y34.3
X62.2Y33.2
X62.2Y32.1
X62.2Y31.0
X62.2Y29.9
X62.2Y28.8
X63.2Y59.8
X63.2Y58.7
X63.2Y57.6
X63.2Y56.5
X63.2Y55.4
X63.2Y54.3
X63.2Y18.2
X63.2Y17.1
X63.2Y16.0
X63.2Y14.9
X63.2Y13.8
X63.2Y12.7
X63.3Y76.7
X63.3Y75.6
X63.3Y74.5
X63.3Y73.4
X63.3Y72.3
X63.3Y71.2
X63.3Y33.2
X63.3Y32.1
X63.3Y31.0
X63.3Y29.9
X63.3Y28.8
X63.7Y99.0
X63.7Y1.1
X64.3Y59.8
X64.3Y58.7
X64.3Y57.6
X64.3Y56.5
X64.3Y55.4
X64.3Y54.3
X64.3Y18.2
X64.3Y17.1
X64.3Y16.0
X64.3Y14.9
X64.3Y13.8
X64.3Y12.7
X64.4Y76.7
X64.4Y75.6
X64.4Y74.5
X64.4Y73.4
X64.4Y72.3
X64.4Y71.2
X64.4Y32.1
X64.4Y31.0
X64.4Y29.9
X64.4Y28.8
X65.7Y99.0
X65.7Y1.1
X67.7Y99.0
X67.7Y1.1
X69.7Y99.0
X69.7Y1.1
X71.7Y99.0
X71.7Y1.1
X73.7Y99.0
X73.7Y1.1
X75.7Y99.0
X75.7Y1.1
X77.7Y99.0
X77.7Y1.1
X79.7Y99.0
X79.7Y1.1
X81.7Y99.0
X81.7Y1.1
X83.7Y99.0
X83.7Y1.1
X85.7Y99.0
X85.7Y1.1
X87.7Y99.0
X87.7Y1.1
X89.7Y99.0
X89.7Y1.1
X91.7Y99.0
X91.7Y1.1
X99.2Y92.3
X99.2Y90.3
X99.2Y88.3
X99.2Y86.3
X99.2Y84.3
X99.2Y82.3
X99.2Y80.3
X99.2Y78.3
X99.2Y76.3
X99.2Y74.3
X99.2Y72.3
X99.2Y70.3
X99.2Y68.3
X99.2Y66.3
X99.2Y64.3
X99.2Y62.3
X99.2Y60.3
X99.2Y58.3
X99.2Y56.3
X99.2Y54.3
X99.2Y52.3
X99.2Y50.3
X99.2Y48.3
X99.2Y46.3
X99.2Y44.3
X99.2Y42.3
X99.2Y40.3
X99.2Y38.3
X99.2Y36.3
X99.2Y34.3
X99.2Y32.3
X99.2Y30.3
X99.2Y28.3
X99.2Y26.3
X99.2Y24.3
X99.2Y22.3
X99.2Y20.3
X99.2Y18.3
X99.2Y16.3
X99.2Y14.3
X99.2Y12.3
X99.2Y10.3
X99.2Y8.3
T5
X1.1Y96.5
X1.1Y3.5
X1.803Y98.197
X1.803Y94.803
X1.803Y5.197
X1.803Y1.803
X3.5Y98.9
X3.5Y94.1
X3.5Y5.9
X3.5Y1.1
X5.197Y98.197
X5.197Y94.803
X5.197Y5.197
X5.197Y1.803
X5.9Y96.5
X5.9Y3.5
X94.1Y96.5
X94.1Y3.5
X94.803Y98.197
X94.803Y94.803
X94.803Y5.197
X94.803Y1.803
X96.5Y98.9
X96.5Y94.1
X96.5Y5.9
X96.5Y1.1
X98.197Y98.197
X98.197Y94.803
X98.197Y5.197
X98.197Y1.803
X98.9Y96.5
X98.9Y3.5
T6
X3.046Y57.448
X3.046Y56.178
X3.046Y54.908
X3.046Y53.638
X3.046Y52.368
X3.046Y51.098
X3.046Y49.828
X4.316Y57.448
X4.316Y56.178
X4.316Y54.908
X4.316Y53.638
X4.316Y52.368
X4.316Y51.098
X4.316Y49.828
T7
X3.216Y83.108
X5.716Y83.108
X18.216Y81.771
X18.266Y87.321
X20.216Y81.771
X20.266Y87.321
X43.3Y87.7
X45.3Y87.7
T8
X3.5Y18.4
X3.5Y10.9
X4.3Y75.3
X4.3Y66.41
X6.0Y18.4
X6.0Y10.9
X6.8Y75.3
X6.8Y66.41
X8.5Y18.4
X8.5Y10.9
X9.3Y75.3
X9.3Y66.41
X11.0Y18.4
X11.0Y10.9
X11.8Y75.3
X11.8Y66.41
X13.5Y18.4
X13.5Y10.9
T9
X9.086Y58.463
X11.626Y58.463
X23.815Y80.325
X26.355Y80.325
X28.895Y80.325
X31.435Y80.325
X42.525Y95.5
X42.525Y83.0
X45.065Y95.5
X45.065Y83.0
X67.1Y86.632
X67.1Y81.632
X67.1Y40.2
X67.1Y35.2
X77.9Y86.732
X77.9Y81.732
X77.9Y40.2
X77.9Y35.2
T10
X38.945Y93.31
X38.945Y90.77
X38.945Y88.23
X38.945Y85.69
T11
X3.5Y96.5
X3.5Y3.5
X96.5Y96.5
X96.5Y3.5
T12
X95.0Y88.0
X95.0Y80.8
X95.1Y56.5
X95.1Y49.3
X95.1Y21.0
X95.1Y13.8
T0
M30
