%TF.GenerationSoftware,KiCad,Pcbnew,7.0.9*%
%TF.CreationDate,2024-10-14T12:04:04+09:00*%
%TF.ProjectId,schematic_MD,73636865-6d61-4746-9963-5f4d442e6b69,rev?*%
%TF.SameCoordinates,PX5a53c78PY8528228*%
%TF.FileFunction,Soldermask,Top*%
%TF.FilePolarity,Negative*%
%FSLAX46Y46*%
G04 Gerber Fmt 4.6, Leading zero omitted, Abs format (unit mm)*
G04 Created by KiCad (PCBNEW 7.0.9) date 2024-10-14 12:04:04*
%MOMM*%
%LPD*%
G01*
G04 APERTURE LIST*
G04 Aperture macros list*
%AMRoundRect*
0 Rectangle with rounded corners*
0 $1 Rounding radius*
0 $2 $3 $4 $5 $6 $7 $8 $9 X,Y pos of 4 corners*
0 Add a 4 corners polygon primitive as box body*
4,1,4,$2,$3,$4,$5,$6,$7,$8,$9,$2,$3,0*
0 Add four circle primitives for the rounded corners*
1,1,$1+$1,$2,$3*
1,1,$1+$1,$4,$5*
1,1,$1+$1,$6,$7*
1,1,$1+$1,$8,$9*
0 Add four rect primitives between the rounded corners*
20,1,$1+$1,$2,$3,$4,$5,0*
20,1,$1+$1,$4,$5,$6,$7,0*
20,1,$1+$1,$6,$7,$8,$9,0*
20,1,$1+$1,$8,$9,$2,$3,0*%
G04 Aperture macros list end*
%ADD10R,1.270000X0.610000*%
%ADD11R,1.020000X0.610000*%
%ADD12R,3.810000X3.910000*%
%ADD13C,0.600000*%
%ADD14RoundRect,0.250000X0.350000X-0.850000X0.350000X0.850000X-0.350000X0.850000X-0.350000X-0.850000X0*%
%ADD15RoundRect,0.249997X2.650003X-2.950003X2.650003X2.950003X-2.650003X2.950003X-2.650003X-2.950003X0*%
%ADD16RoundRect,0.237500X-0.250000X-0.237500X0.250000X-0.237500X0.250000X0.237500X-0.250000X0.237500X0*%
%ADD17RoundRect,0.237500X-0.287500X-0.237500X0.287500X-0.237500X0.287500X0.237500X-0.287500X0.237500X0*%
%ADD18R,1.700000X1.700000*%
%ADD19O,1.700000X1.700000*%
%ADD20RoundRect,0.237500X0.237500X-0.300000X0.237500X0.300000X-0.237500X0.300000X-0.237500X-0.300000X0*%
%ADD21RoundRect,0.160000X-0.160000X0.197500X-0.160000X-0.197500X0.160000X-0.197500X0.160000X0.197500X0*%
%ADD22R,0.760000X1.600000*%
%ADD23RoundRect,0.237500X-0.237500X0.250000X-0.237500X-0.250000X0.237500X-0.250000X0.237500X0.250000X0*%
%ADD24RoundRect,0.243750X-0.456250X0.243750X-0.456250X-0.243750X0.456250X-0.243750X0.456250X0.243750X0*%
%ADD25RoundRect,0.237500X0.300000X0.237500X-0.300000X0.237500X-0.300000X-0.237500X0.300000X-0.237500X0*%
%ADD26RoundRect,0.250000X-1.100000X0.412500X-1.100000X-0.412500X1.100000X-0.412500X1.100000X0.412500X0*%
%ADD27RoundRect,0.250000X-0.450000X0.350000X-0.450000X-0.350000X0.450000X-0.350000X0.450000X0.350000X0*%
%ADD28RoundRect,0.155000X0.212500X0.155000X-0.212500X0.155000X-0.212500X-0.155000X0.212500X-0.155000X0*%
%ADD29RoundRect,0.250000X-0.300000X-0.300000X0.300000X-0.300000X0.300000X0.300000X-0.300000X0.300000X0*%
%ADD30RoundRect,0.075000X0.075000X-0.700000X0.075000X0.700000X-0.075000X0.700000X-0.075000X-0.700000X0*%
%ADD31RoundRect,0.075000X0.700000X-0.075000X0.700000X0.075000X-0.700000X0.075000X-0.700000X-0.075000X0*%
%ADD32RoundRect,0.237500X0.250000X0.237500X-0.250000X0.237500X-0.250000X-0.237500X0.250000X-0.237500X0*%
%ADD33R,1.600000X1.600000*%
%ADD34C,1.600000*%
%ADD35RoundRect,0.155000X-0.212500X-0.155000X0.212500X-0.155000X0.212500X0.155000X-0.212500X0.155000X0*%
%ADD36RoundRect,0.140000X-0.170000X0.140000X-0.170000X-0.140000X0.170000X-0.140000X0.170000X0.140000X0*%
%ADD37RoundRect,0.250000X-0.400000X-0.625000X0.400000X-0.625000X0.400000X0.625000X-0.400000X0.625000X0*%
%ADD38R,0.400000X1.560000*%
%ADD39RoundRect,0.250000X-0.475000X0.250000X-0.475000X-0.250000X0.475000X-0.250000X0.475000X0.250000X0*%
%ADD40R,1.000000X1.000000*%
%ADD41O,1.000000X1.000000*%
%ADD42R,1.000000X0.750000*%
%ADD43RoundRect,0.160000X0.197500X0.160000X-0.197500X0.160000X-0.197500X-0.160000X0.197500X-0.160000X0*%
%ADD44RoundRect,0.155000X-0.155000X0.212500X-0.155000X-0.212500X0.155000X-0.212500X0.155000X0.212500X0*%
%ADD45RoundRect,0.150000X0.150000X-0.825000X0.150000X0.825000X-0.150000X0.825000X-0.150000X-0.825000X0*%
%ADD46R,1.200000X1.400000*%
%ADD47RoundRect,0.250000X0.300000X0.300000X-0.300000X0.300000X-0.300000X-0.300000X0.300000X-0.300000X0*%
%ADD48RoundRect,0.250000X-0.350000X-0.450000X0.350000X-0.450000X0.350000X0.450000X-0.350000X0.450000X0*%
%ADD49R,2.000000X2.000000*%
%ADD50C,2.000000*%
%ADD51RoundRect,0.150000X-0.875000X-0.150000X0.875000X-0.150000X0.875000X0.150000X-0.875000X0.150000X0*%
%ADD52RoundRect,0.155000X0.155000X-0.212500X0.155000X0.212500X-0.155000X0.212500X-0.155000X-0.212500X0*%
%ADD53RoundRect,0.250000X0.350000X0.450000X-0.350000X0.450000X-0.350000X-0.450000X0.350000X-0.450000X0*%
%ADD54RoundRect,0.237500X0.237500X-0.287500X0.237500X0.287500X-0.237500X0.287500X-0.237500X-0.287500X0*%
%ADD55RoundRect,0.237500X-0.237500X0.300000X-0.237500X-0.300000X0.237500X-0.300000X0.237500X0.300000X0*%
%ADD56RoundRect,0.150000X0.512500X0.150000X-0.512500X0.150000X-0.512500X-0.150000X0.512500X-0.150000X0*%
%ADD57RoundRect,1.500000X-1.500000X1.500000X-1.500000X-1.500000X1.500000X-1.500000X1.500000X1.500000X0*%
%ADD58C,6.000000*%
%ADD59RoundRect,0.250000X0.600000X0.725000X-0.600000X0.725000X-0.600000X-0.725000X0.600000X-0.725000X0*%
%ADD60O,1.700000X1.950000*%
%ADD61C,0.800000*%
%ADD62C,6.400000*%
%ADD63R,1.800000X1.000000*%
%ADD64RoundRect,0.160000X-0.197500X-0.160000X0.197500X-0.160000X0.197500X0.160000X-0.197500X0.160000X0*%
%ADD65R,2.000000X1.905000*%
%ADD66O,2.000000X1.905000*%
%ADD67RoundRect,0.140000X0.170000X-0.140000X0.170000X0.140000X-0.170000X0.140000X-0.170000X-0.140000X0*%
%ADD68RoundRect,0.237500X0.237500X-0.250000X0.237500X0.250000X-0.237500X0.250000X-0.237500X-0.250000X0*%
%ADD69RoundRect,0.237500X-0.300000X-0.237500X0.300000X-0.237500X0.300000X0.237500X-0.300000X0.237500X0*%
%ADD70RoundRect,1.500000X1.500000X-1.500000X1.500000X1.500000X-1.500000X1.500000X-1.500000X-1.500000X0*%
%ADD71RoundRect,0.250000X0.400000X0.625000X-0.400000X0.625000X-0.400000X-0.625000X0.400000X-0.625000X0*%
G04 APERTURE END LIST*
D10*
%TO.C,Q6*%
X68645000Y69045000D03*
X68645000Y67775000D03*
X68645000Y66505000D03*
X68645000Y65235000D03*
D11*
X74110000Y67775000D03*
X74110000Y69045000D03*
X74110000Y65235000D03*
D12*
X72005000Y67140000D03*
D11*
X74110000Y66505000D03*
%TD*%
D10*
%TO.C,Q5*%
X68645000Y26670000D03*
X68645000Y25400000D03*
X68645000Y24130000D03*
X68645000Y22860000D03*
D11*
X74110000Y25400000D03*
X74110000Y26670000D03*
X74110000Y22860000D03*
D12*
X72005000Y24765000D03*
D11*
X74110000Y24130000D03*
%TD*%
D10*
%TO.C,Q2*%
X68650000Y52170000D03*
X68650000Y50900000D03*
X68650000Y49630000D03*
X68650000Y48360000D03*
D11*
X74115000Y50900000D03*
X74115000Y52170000D03*
X74115000Y48360000D03*
D12*
X72010000Y50265000D03*
D11*
X74115000Y49630000D03*
%TD*%
D10*
%TO.C,Q1*%
X68550000Y10705000D03*
X68550000Y9435000D03*
X68550000Y8165000D03*
X68550000Y6895000D03*
D11*
X74015000Y9435000D03*
X74015000Y10705000D03*
X74015000Y6895000D03*
D12*
X71910000Y8800000D03*
D11*
X74015000Y8165000D03*
%TD*%
D10*
%TO.C,Q8*%
X54445000Y69070000D03*
X54445000Y67800000D03*
X54445000Y66530000D03*
X54445000Y65260000D03*
D12*
X57805000Y67165000D03*
D11*
X59910000Y69070000D03*
X59910000Y67800000D03*
X59910000Y66530000D03*
X59910000Y65260000D03*
%TD*%
D10*
%TO.C,Q7*%
X54245000Y26640000D03*
X54245000Y25370000D03*
X54245000Y24100000D03*
X54245000Y22830000D03*
D12*
X57605000Y24735000D03*
D11*
X59710000Y26640000D03*
X59710000Y25370000D03*
X59710000Y24100000D03*
X59710000Y22830000D03*
%TD*%
D10*
%TO.C,Q4*%
X54445000Y52170000D03*
X54445000Y50900000D03*
X54445000Y49630000D03*
X54445000Y48360000D03*
D12*
X57805000Y50265000D03*
D11*
X59910000Y52170000D03*
X59910000Y50900000D03*
X59910000Y49630000D03*
X59910000Y48360000D03*
%TD*%
D10*
%TO.C,Q3*%
X54250000Y10735000D03*
X54250000Y9465000D03*
X54250000Y8195000D03*
X54250000Y6925000D03*
D12*
X57610000Y8830000D03*
D11*
X59715000Y10735000D03*
X59715000Y9465000D03*
X59715000Y8195000D03*
X59715000Y6925000D03*
%TD*%
D13*
%TO.C,U8*%
X11366000Y98048200D03*
D14*
X14846000Y89408200D03*
D15*
X12566000Y95708200D03*
D14*
X10286000Y89408200D03*
%TD*%
D16*
%TO.C,R50*%
X16752500Y52325000D03*
X18577500Y52325000D03*
%TD*%
D17*
%TO.C,D22*%
X16822500Y53925000D03*
X18572500Y53925000D03*
%TD*%
D18*
%TO.C,J8*%
X31435000Y80325000D03*
D19*
X28895000Y80325000D03*
X26355000Y80325000D03*
X23815000Y80325000D03*
%TD*%
D20*
%TO.C,C61*%
X27065000Y4512500D03*
X27065000Y6237500D03*
%TD*%
%TO.C,C60*%
X28615000Y4512500D03*
X28615000Y6237500D03*
%TD*%
D21*
%TO.C,R49*%
X16765000Y60322500D03*
X16765000Y59127500D03*
%TD*%
%TO.C,R48*%
X17815000Y60322500D03*
X17815000Y59127500D03*
%TD*%
%TO.C,R47*%
X18865000Y60322500D03*
X18865000Y59127500D03*
%TD*%
%TO.C,R46*%
X19867500Y60322500D03*
X19867500Y59127500D03*
%TD*%
D22*
%TO.C,SW2*%
X16975000Y63605000D03*
X18245000Y63605000D03*
X19515000Y63605000D03*
X20785000Y63605000D03*
X20785000Y71225000D03*
X19515000Y71225000D03*
X18245000Y71225000D03*
X16975000Y71225000D03*
%TD*%
D23*
%TO.C,R45*%
X25530000Y3530500D03*
X25530000Y1705500D03*
%TD*%
D24*
%TO.C,D20*%
X23680000Y3505500D03*
X23680000Y1630500D03*
%TD*%
D25*
%TO.C,C54*%
X26997000Y59228000D03*
X25272000Y59228000D03*
%TD*%
D26*
%TO.C,C15*%
X43400000Y32662500D03*
X43400000Y29537500D03*
%TD*%
D21*
%TO.C,R26*%
X52700000Y4097500D03*
X52700000Y2902500D03*
%TD*%
D27*
%TO.C,L2*%
X17666000Y28708200D03*
X17666000Y30708200D03*
%TD*%
D28*
%TO.C,C28*%
X5227500Y31241200D03*
X4092500Y31241200D03*
%TD*%
D29*
%TO.C,D21*%
X44697000Y91740000D03*
X47497000Y91740000D03*
%TD*%
D30*
%TO.C,U6*%
X6966000Y31833200D03*
X7466000Y31833200D03*
X7966000Y31833200D03*
X8466000Y31833200D03*
X8966000Y31833200D03*
X9466000Y31833200D03*
X9966000Y31833200D03*
X10466000Y31833200D03*
X10966000Y31833200D03*
X11466000Y31833200D03*
X11966000Y31833200D03*
X12466000Y31833200D03*
X12966000Y31833200D03*
X13466000Y31833200D03*
X13966000Y31833200D03*
X14466000Y31833200D03*
D31*
X16391000Y33758200D03*
X16391000Y34258200D03*
X16391000Y34758200D03*
X16391000Y35258200D03*
X16391000Y35758200D03*
X16391000Y36258200D03*
X16391000Y36758200D03*
X16391000Y37258200D03*
X16391000Y37758200D03*
X16391000Y38258200D03*
X16391000Y38758200D03*
X16391000Y39258200D03*
X16391000Y39758200D03*
X16391000Y40258200D03*
X16391000Y40758200D03*
X16391000Y41258200D03*
D30*
X14466000Y43183200D03*
X13966000Y43183200D03*
X13466000Y43183200D03*
X12966000Y43183200D03*
X12466000Y43183200D03*
X11966000Y43183200D03*
X11466000Y43183200D03*
X10966000Y43183200D03*
X10466000Y43183200D03*
X9966000Y43183200D03*
X9466000Y43183200D03*
X8966000Y43183200D03*
X8466000Y43183200D03*
X7966000Y43183200D03*
X7466000Y43183200D03*
X6966000Y43183200D03*
D31*
X5041000Y41258200D03*
X5041000Y40758200D03*
X5041000Y40258200D03*
X5041000Y39758200D03*
X5041000Y39258200D03*
X5041000Y38758200D03*
X5041000Y38258200D03*
X5041000Y37758200D03*
X5041000Y37258200D03*
X5041000Y36758200D03*
X5041000Y36258200D03*
X5041000Y35758200D03*
X5041000Y35258200D03*
X5041000Y34758200D03*
X5041000Y34258200D03*
X5041000Y33758200D03*
%TD*%
D32*
%TO.C,R16*%
X27666500Y92808000D03*
X25841500Y92808000D03*
%TD*%
D25*
%TO.C,C52*%
X26997000Y54656000D03*
X25272000Y54656000D03*
%TD*%
%TO.C,C53*%
X27020500Y17953000D03*
X25295500Y17953000D03*
%TD*%
D33*
%TO.C,C8*%
X18266000Y87320700D03*
D34*
X20266000Y87320700D03*
%TD*%
D35*
%TO.C,C29*%
X16997500Y26525000D03*
X18132500Y26525000D03*
%TD*%
D36*
%TO.C,C42*%
X3266000Y29388200D03*
X3266000Y28428200D03*
%TD*%
D37*
%TO.C,R5*%
X40450000Y34800000D03*
X43550000Y34800000D03*
%TD*%
D29*
%TO.C,D18*%
X10978500Y80208200D03*
X13778500Y80208200D03*
%TD*%
D36*
%TO.C,C32*%
X8100000Y27528200D03*
X8100000Y28488200D03*
%TD*%
D16*
%TO.C,R43*%
X25245500Y74468000D03*
X27070500Y74468000D03*
%TD*%
D38*
%TO.C,U7*%
X8736000Y49758200D03*
X9386000Y49758200D03*
X10046000Y49758200D03*
X10696000Y49758200D03*
X10696000Y52458200D03*
X10046000Y52458200D03*
X9386000Y52458200D03*
X8736000Y52458200D03*
%TD*%
D39*
%TO.C,C43*%
X41600000Y92700000D03*
X41600000Y90800000D03*
%TD*%
D40*
%TO.C,J7*%
X3046000Y57448200D03*
D41*
X4316000Y57448200D03*
X3046000Y56178200D03*
X4316000Y56178200D03*
X3046000Y54908200D03*
X4316000Y54908200D03*
X3046000Y53638200D03*
X4316000Y53638200D03*
X3046000Y52368200D03*
X4316000Y52368200D03*
X3046000Y51098200D03*
X4316000Y51098200D03*
X3046000Y49828200D03*
X4316000Y49828200D03*
%TD*%
D26*
%TO.C,C21*%
X43400000Y74462500D03*
X43400000Y71337500D03*
%TD*%
D42*
%TO.C,SW1*%
X17220000Y1625000D03*
X11220000Y1625000D03*
X17220000Y5375000D03*
X11220000Y5375000D03*
%TD*%
D21*
%TO.C,R27*%
X54400000Y45300000D03*
X54400000Y44105000D03*
%TD*%
D20*
%TO.C,C26*%
X84300000Y83537500D03*
X84300000Y85262500D03*
%TD*%
D28*
%TO.C,C40*%
X5713500Y43408200D03*
X4578500Y43408200D03*
%TD*%
D43*
%TO.C,R35*%
X27898500Y66736000D03*
X26703500Y66736000D03*
%TD*%
D44*
%TO.C,C37*%
X18236000Y35075700D03*
X18236000Y33940700D03*
%TD*%
D26*
%TO.C,C25*%
X43400000Y68662500D03*
X43400000Y65537500D03*
%TD*%
D43*
%TO.C,R30*%
X55100000Y18700000D03*
X53905000Y18700000D03*
%TD*%
D45*
%TO.C,U11*%
X25120000Y38800000D03*
X26390000Y38800000D03*
X27660000Y38800000D03*
X28930000Y38800000D03*
X30200000Y38800000D03*
X31470000Y38800000D03*
X32740000Y38800000D03*
X32740000Y43750000D03*
X31470000Y43750000D03*
X30200000Y43750000D03*
X28930000Y43750000D03*
X27660000Y43750000D03*
X26390000Y43750000D03*
X25120000Y43750000D03*
%TD*%
D26*
%TO.C,C23*%
X43400000Y57562500D03*
X43400000Y54437500D03*
%TD*%
D46*
%TO.C,Y1*%
X11166000Y28458200D03*
X11166000Y26258200D03*
X9466000Y26258200D03*
X9466000Y28458200D03*
%TD*%
D35*
%TO.C,C39*%
X18130000Y42090200D03*
X19265000Y42090200D03*
%TD*%
D26*
%TO.C,C19*%
X43400000Y26862500D03*
X43400000Y23737500D03*
%TD*%
D47*
%TO.C,D13*%
X57005000Y13565000D03*
X54205000Y13565000D03*
%TD*%
D37*
%TO.C,R4*%
X40500000Y18635000D03*
X43600000Y18635000D03*
%TD*%
D32*
%TO.C,R15*%
X12108500Y55873004D03*
X10283500Y55873004D03*
%TD*%
D48*
%TO.C,R9*%
X66600000Y45400000D03*
X68600000Y45400000D03*
%TD*%
D23*
%TO.C,R44*%
X21194000Y3529000D03*
X21194000Y1704000D03*
%TD*%
D16*
%TO.C,R40*%
X25245500Y31034000D03*
X27070500Y31034000D03*
%TD*%
D44*
%TO.C,C22*%
X28952000Y55350500D03*
X28952000Y54215500D03*
%TD*%
D25*
%TO.C,C31*%
X14116000Y28608200D03*
X15841000Y28608200D03*
%TD*%
D47*
%TO.C,D14*%
X57000000Y29500000D03*
X54200000Y29500000D03*
%TD*%
D49*
%TO.C,C10*%
X67100000Y81632323D03*
D50*
X67100000Y86632323D03*
%TD*%
D21*
%TO.C,R21*%
X27809000Y52459500D03*
X27809000Y51264500D03*
%TD*%
D17*
%TO.C,D8*%
X22450000Y96200000D03*
X24200000Y96200000D03*
%TD*%
D51*
%TO.C,U3*%
X30850000Y57545000D03*
X30850000Y56275000D03*
X30850000Y55005000D03*
X30850000Y53735000D03*
X30850000Y52465000D03*
X30850000Y51195000D03*
X30850000Y49925000D03*
X30850000Y48655000D03*
X40150000Y48655000D03*
X40150000Y49925000D03*
X40150000Y51195000D03*
X40150000Y52465000D03*
X40150000Y53735000D03*
X40150000Y55005000D03*
X40150000Y56275000D03*
X40150000Y57545000D03*
%TD*%
D52*
%TO.C,C33*%
X3216000Y32440700D03*
X3216000Y33575700D03*
%TD*%
D16*
%TO.C,R37*%
X25222000Y57704000D03*
X27047000Y57704000D03*
%TD*%
D18*
%TO.C,J9*%
X9086000Y58463004D03*
D19*
X11626000Y58463004D03*
%TD*%
D32*
%TO.C,R18*%
X27666500Y96327000D03*
X25841500Y96327000D03*
%TD*%
D16*
%TO.C,R41*%
X25245500Y32558000D03*
X27070500Y32558000D03*
%TD*%
D47*
%TO.C,D10*%
X71400000Y55000000D03*
X68600000Y55000000D03*
%TD*%
D43*
%TO.C,R28*%
X69300000Y18600000D03*
X68105000Y18600000D03*
%TD*%
D33*
%TO.C,C59*%
X43300000Y87700000D03*
D34*
X45300000Y87700000D03*
%TD*%
D51*
%TO.C,U4*%
X30850000Y32645000D03*
X30850000Y31375000D03*
X30850000Y30105000D03*
X30850000Y28835000D03*
X30850000Y27565000D03*
X30850000Y26295000D03*
X30850000Y25025000D03*
X30850000Y23755000D03*
X40150000Y23755000D03*
X40150000Y25025000D03*
X40150000Y26295000D03*
X40150000Y27565000D03*
X40150000Y28835000D03*
X40150000Y30105000D03*
X40150000Y31375000D03*
X40150000Y32645000D03*
%TD*%
D21*
%TO.C,R23*%
X27682000Y69313000D03*
X27682000Y68118000D03*
%TD*%
D48*
%TO.C,R2*%
X66505000Y4100000D03*
X68505000Y4100000D03*
%TD*%
D25*
%TO.C,C56*%
X27020500Y34082000D03*
X25295500Y34082000D03*
%TD*%
D43*
%TO.C,R33*%
X27898500Y49957000D03*
X26703500Y49957000D03*
%TD*%
D53*
%TO.C,R10*%
X58100000Y45400000D03*
X56100000Y45400000D03*
%TD*%
D54*
%TO.C,D17*%
X97100000Y70900000D03*
X97100000Y72650000D03*
%TD*%
D44*
%TO.C,C20*%
X28900000Y72241500D03*
X28900000Y71106500D03*
%TD*%
D26*
%TO.C,C24*%
X43400000Y51762500D03*
X43400000Y48637500D03*
%TD*%
D48*
%TO.C,R6*%
X66600000Y20200000D03*
X68600000Y20200000D03*
%TD*%
D55*
%TO.C,C3*%
X9316000Y83970700D03*
X9316000Y82245700D03*
%TD*%
D32*
%TO.C,R17*%
X27666500Y94627000D03*
X25841500Y94627000D03*
%TD*%
D47*
%TO.C,D4*%
X43500000Y79000000D03*
X40700000Y79000000D03*
%TD*%
D52*
%TO.C,C47*%
X26666000Y26402500D03*
X26666000Y27537500D03*
%TD*%
D56*
%TO.C,U2*%
X13353500Y82158200D03*
X13353500Y84058200D03*
X11078500Y83108200D03*
%TD*%
D18*
%TO.C,J10*%
X42525000Y95500000D03*
D19*
X45065000Y95500000D03*
%TD*%
D25*
%TO.C,C58*%
X27020500Y75992000D03*
X25295500Y75992000D03*
%TD*%
D57*
%TO.C,J1*%
X95100000Y21000000D03*
D58*
X95100000Y13800000D03*
%TD*%
D37*
%TO.C,R13*%
X40250000Y76700000D03*
X43350000Y76700000D03*
%TD*%
D16*
%TO.C,R36*%
X25245500Y16429000D03*
X27070500Y16429000D03*
%TD*%
D59*
%TO.C,J6*%
X13500000Y10900000D03*
D60*
X11000000Y10900000D03*
X8500000Y10900000D03*
X6000000Y10900000D03*
X3500000Y10900000D03*
%TD*%
D47*
%TO.C,D3*%
X43400000Y62200000D03*
X40600000Y62200000D03*
%TD*%
D25*
%TO.C,C55*%
X27047000Y29510000D03*
X25322000Y29510000D03*
%TD*%
D61*
%TO.C,H1*%
X1100000Y96500000D03*
X1802944Y98197056D03*
X1802944Y94802944D03*
X3500000Y98900000D03*
D62*
X3500000Y96500000D03*
D61*
X3500000Y94100000D03*
X5197056Y98197056D03*
X5197056Y94802944D03*
X5900000Y96500000D03*
%TD*%
D63*
%TO.C,Y2*%
X4916000Y29108200D03*
X4916000Y26608200D03*
%TD*%
D21*
%TO.C,R24*%
X70200000Y4100000D03*
X70200000Y2905000D03*
%TD*%
D53*
%TO.C,R12*%
X56400000Y62300000D03*
X54400000Y62300000D03*
%TD*%
D64*
%TO.C,R25*%
X70105000Y45400000D03*
X71300000Y45400000D03*
%TD*%
D47*
%TO.C,D16*%
X57200000Y71900000D03*
X54400000Y71900000D03*
%TD*%
D65*
%TO.C,U9*%
X38945000Y85690000D03*
D66*
X38945000Y88230000D03*
X38945000Y90770000D03*
X38945000Y93310000D03*
%TD*%
D53*
%TO.C,R3*%
X56205000Y4100000D03*
X54205000Y4100000D03*
%TD*%
D17*
%TO.C,D7*%
X22450000Y94500000D03*
X24200000Y94500000D03*
%TD*%
D47*
%TO.C,D12*%
X71395000Y71900000D03*
X68595000Y71900000D03*
%TD*%
D33*
%TO.C,C2*%
X5716000Y83108200D03*
D34*
X3216000Y83108200D03*
%TD*%
D43*
%TO.C,R34*%
X27936000Y25065000D03*
X26741000Y25065000D03*
%TD*%
D28*
%TO.C,C45*%
X27868500Y23930000D03*
X26733500Y23930000D03*
%TD*%
D29*
%TO.C,D5*%
X11100000Y86900000D03*
X13900000Y86900000D03*
%TD*%
D59*
%TO.C,J11*%
X11800000Y66410000D03*
D60*
X9300000Y66410000D03*
X6800000Y66410000D03*
X4300000Y66410000D03*
%TD*%
D53*
%TO.C,R7*%
X56200000Y20200000D03*
X54200000Y20200000D03*
%TD*%
D43*
%TO.C,R31*%
X55295000Y60700000D03*
X54100000Y60700000D03*
%TD*%
%TO.C,R29*%
X68600000Y60800000D03*
X67405000Y60800000D03*
%TD*%
D44*
%TO.C,C16*%
X28952000Y14202500D03*
X28952000Y13067500D03*
%TD*%
D28*
%TO.C,C44*%
X27868500Y48814000D03*
X26733500Y48814000D03*
%TD*%
D67*
%TO.C,C41*%
X3266000Y26328200D03*
X3266000Y27288200D03*
%TD*%
D43*
%TO.C,R32*%
X27771500Y8682000D03*
X26576500Y8682000D03*
%TD*%
D20*
%TO.C,C7*%
X8136000Y89408200D03*
X8136000Y91133200D03*
%TD*%
D37*
%TO.C,R8*%
X40300000Y59800000D03*
X43400000Y59800000D03*
%TD*%
D61*
%TO.C,H3*%
X94100000Y96500000D03*
X94802944Y98197056D03*
X94802944Y94802944D03*
X96500000Y98900000D03*
D62*
X96500000Y96500000D03*
D61*
X96500000Y94100000D03*
X98197056Y98197056D03*
X98197056Y94802944D03*
X98900000Y96500000D03*
%TD*%
D17*
%TO.C,D6*%
X22450000Y92800000D03*
X24200000Y92800000D03*
%TD*%
D25*
%TO.C,C57*%
X27020500Y71420000D03*
X25295500Y71420000D03*
%TD*%
D68*
%TO.C,R19*%
X95449000Y70862500D03*
X95449000Y72687500D03*
%TD*%
D16*
%TO.C,R42*%
X25245500Y72944000D03*
X27070500Y72944000D03*
%TD*%
D55*
%TO.C,C4*%
X15116000Y84008200D03*
X15116000Y82283200D03*
%TD*%
D21*
%TO.C,R14*%
X3216000Y35835700D03*
X3216000Y34640700D03*
%TD*%
D52*
%TO.C,C48*%
X26539000Y68073500D03*
X26539000Y69208500D03*
%TD*%
D69*
%TO.C,C36*%
X18553500Y40718200D03*
X20278500Y40718200D03*
%TD*%
D33*
%TO.C,C9*%
X18216000Y81770700D03*
D34*
X20216000Y81770700D03*
%TD*%
D52*
%TO.C,C50*%
X26666000Y51294500D03*
X26666000Y52429500D03*
%TD*%
D48*
%TO.C,R11*%
X66600000Y62300000D03*
X68600000Y62300000D03*
%TD*%
D20*
%TO.C,C30*%
X12800000Y48400000D03*
X12800000Y50125000D03*
%TD*%
D24*
%TO.C,D19*%
X19315000Y3512500D03*
X19315000Y1637500D03*
%TD*%
D26*
%TO.C,C18*%
X43400000Y16462500D03*
X43400000Y13337500D03*
%TD*%
D51*
%TO.C,U5*%
X30850000Y74445000D03*
X30850000Y73175000D03*
X30850000Y71905000D03*
X30850000Y70635000D03*
X30850000Y69365000D03*
X30850000Y68095000D03*
X30850000Y66825000D03*
X30850000Y65555000D03*
X40150000Y65555000D03*
X40150000Y66825000D03*
X40150000Y68095000D03*
X40150000Y69365000D03*
X40150000Y70635000D03*
X40150000Y71905000D03*
X40150000Y73175000D03*
X40150000Y74445000D03*
%TD*%
D21*
%TO.C,R20*%
X27682000Y11325000D03*
X27682000Y10130000D03*
%TD*%
D47*
%TO.C,D1*%
X43600000Y21010000D03*
X40800000Y21010000D03*
%TD*%
D44*
%TO.C,C13*%
X23790000Y43300000D03*
X23790000Y42165000D03*
%TD*%
D16*
%TO.C,R38*%
X25245500Y14905000D03*
X27070500Y14905000D03*
%TD*%
D57*
%TO.C,J2*%
X95100000Y56500000D03*
D58*
X95100000Y49300000D03*
%TD*%
D28*
%TO.C,C46*%
X27868500Y65593000D03*
X26733500Y65593000D03*
%TD*%
%TO.C,C5*%
X10033500Y48138200D03*
X8898500Y48138200D03*
%TD*%
D25*
%TO.C,C51*%
X27044000Y13381000D03*
X25319000Y13381000D03*
%TD*%
D44*
%TO.C,C14*%
X29000000Y30331500D03*
X29000000Y29196500D03*
%TD*%
D52*
%TO.C,C49*%
X26539000Y10146500D03*
X26539000Y11281500D03*
%TD*%
D47*
%TO.C,D11*%
X71400000Y29500000D03*
X68600000Y29500000D03*
%TD*%
%TO.C,D15*%
X57200000Y55000000D03*
X54400000Y55000000D03*
%TD*%
D26*
%TO.C,C17*%
X43400000Y10662500D03*
X43400000Y7537500D03*
%TD*%
D20*
%TO.C,C6*%
X16986000Y90437500D03*
X16986000Y92162500D03*
%TD*%
D25*
%TO.C,C38*%
X5166000Y44788200D03*
X3441000Y44788200D03*
%TD*%
D28*
%TO.C,C34*%
X14672500Y29890200D03*
X13537500Y29890200D03*
%TD*%
D49*
%TO.C,C1*%
X77900000Y81732323D03*
D50*
X77900000Y86732323D03*
%TD*%
D49*
%TO.C,C12*%
X67100000Y35200000D03*
D50*
X67100000Y40200000D03*
%TD*%
D70*
%TO.C,J3*%
X95000000Y80800000D03*
D58*
X95000000Y88000000D03*
%TD*%
D51*
%TO.C,U1*%
X30850000Y16445000D03*
X30850000Y15175000D03*
X30850000Y13905000D03*
X30850000Y12635000D03*
X30850000Y11365000D03*
X30850000Y10095000D03*
X30850000Y8825000D03*
X30850000Y7555000D03*
X40150000Y7555000D03*
X40150000Y8825000D03*
X40150000Y10095000D03*
X40150000Y11365000D03*
X40150000Y12635000D03*
X40150000Y13905000D03*
X40150000Y15175000D03*
X40150000Y16445000D03*
%TD*%
D59*
%TO.C,J4*%
X11800000Y75300000D03*
D60*
X9300000Y75300000D03*
X6800000Y75300000D03*
X4300000Y75300000D03*
%TD*%
D47*
%TO.C,D2*%
X43600000Y37200000D03*
X40800000Y37200000D03*
%TD*%
%TO.C,D9*%
X71400000Y13600000D03*
X68600000Y13600000D03*
%TD*%
D28*
%TO.C,C27*%
X27740500Y7603000D03*
X26605500Y7603000D03*
%TD*%
D36*
%TO.C,C35*%
X12566000Y26228200D03*
X12566000Y27188200D03*
%TD*%
D49*
%TO.C,C11*%
X77900000Y35200000D03*
D50*
X77900000Y40200000D03*
%TD*%
D71*
%TO.C,R1*%
X5516000Y87708200D03*
X2416000Y87708200D03*
%TD*%
D18*
%TO.C,J13*%
X42525000Y83000000D03*
D19*
X45065000Y83000000D03*
%TD*%
D21*
%TO.C,R22*%
X27809000Y27525000D03*
X27809000Y26330000D03*
%TD*%
D16*
%TO.C,R39*%
X25222000Y56180000D03*
X27047000Y56180000D03*
%TD*%
D61*
%TO.C,H4*%
X94100000Y3500000D03*
X94802944Y5197056D03*
X94802944Y1802944D03*
X96500000Y5900000D03*
D62*
X96500000Y3500000D03*
D61*
X96500000Y1100000D03*
X98197056Y5197056D03*
X98197056Y1802944D03*
X98900000Y3500000D03*
%TD*%
D59*
%TO.C,J5*%
X13500000Y18400000D03*
D60*
X11000000Y18400000D03*
X8500000Y18400000D03*
X6000000Y18400000D03*
X3500000Y18400000D03*
%TD*%
D61*
%TO.C,H2*%
X1100000Y3500000D03*
X1802944Y5197056D03*
X1802944Y1802944D03*
X3500000Y5900000D03*
D62*
X3500000Y3500000D03*
D61*
X3500000Y1100000D03*
X5197056Y5197056D03*
X5197056Y1802944D03*
X5900000Y3500000D03*
%TD*%
M02*
